<?xml version="1.0" encoding="utf-8"?>
<!-- Generator: Adobe Illustrator 21.0.0, SVG Export Plug-In . SVG Version: 6.00 Build 0)  -->
<svg version="1.1" id="Calque_1" xmlns="http://www.w3.org/2000/svg" xmlns:xlink="http://www.w3.org/1999/xlink" x="0px" y="0px"
	 viewBox="0 0 100 100" style="enable-background:new 0 0 100 100;" xml:space="preserve">
<style type="text/css">
	.st0{fill:#FFFFFF;}
</style>
<g>
	<polygon class="st0" points="50.3,45.2 51.3,45.2 51.3,44.2 51.3,8.9 51.3,7.9 50.3,7.9 44.6,7.9 43.6,7.9 43.6,8.9 43.6,44.2 
		43.6,45.2 44.6,45.2 	"/>
	<path class="st0" d="M66.8,16.9L66,16.3l-0.6,0.8l-3.3,4.6l-0.6,0.8l0.8,0.6c6.9,4.9,11,12.9,11,21.2c0,14.3-11.6,25.9-25.9,25.9
		S21.5,58.6,21.5,44.3c0-8.3,4.1-16.2,11-21.2l0.8-0.6l-0.6-0.8l-3.3-4.6l-0.6-0.8L28,16.9c-8.9,6.3-14.2,16.6-14.2,27.4
		c0,18.5,15.1,33.6,33.6,33.6S81,62.8,81,44.3C81,33.4,75.7,23.2,66.8,16.9z"/>
</g>
</svg>
